Coordinates
version=1
nRows=9
nColumns=36
inDegrees=yes

Units are S.I. units (second, meters, Newtons, ...)
If the header above contains a line with 'inDegrees', this indicates whether rotational values are in degrees (yes) or radians (no).

endheader
time	pelvis_tilt	pelvis_list	pelvis_rotation	pelvis_tx	pelvis_ty	pelvis_tz	hip_flexion_r	hip_adduction_r	hip_rotation_r	knee_angle_r	knee_angle_r_beta	ankle_angle_r	subtalar_angle_r	mtp_angle_r	hip_flexion_l	hip_adduction_l	hip_rotation_l	knee_angle_l	knee_angle_l_beta	ankle_angle_l	subtalar_angle_l	mtp_angle_l	lumbar_extension	lumbar_bending	lumbar_rotation	arm_flex_r	arm_add_r	arm_rot_r	elbow_flex_r	pro_sup_r	arm_flex_l	arm_add_l	arm_rot_l	elbow_flex_l	pro_sup_l
      0.00000000	     -6.53243197	     -1.67097577	     -0.94305290	     -0.15058527	      0.96187067	     -0.68875100	      5.55808781	     -6.03709844	      3.43549607	      1.53028342	      0.02670848	      3.68831594	     -1.84014837	     -6.10967141	      6.00951918	     -8.36113311	     -9.31297227	      2.51417487	      0.04388063	      5.18196035	      4.42912863	     -6.10967141	      1.17925545	     -0.88398472	     -0.62459624	     14.91142546	    -26.99768034	     -1.02238219	    115.53718679	    105.39879180	     16.72795128	    -21.83236959	     -0.36810841	    115.67848162	    105.13956870
      0.01000000	     -6.45107178	     -1.68851571	     -0.84283926	     -0.15035767	      0.96194542	     -0.68888002	      5.46733828	     -6.05533380	      2.75623805	      1.58099816	      0.02759362	      4.15399190	     -0.71781328	     -6.33112124	      5.88429367	     -8.34335197	     -8.95896502	      2.43440060	      0.04248831	      5.09197514	      4.02742289	     -6.33112124	      1.10676761	     -0.87242614	     -0.73571479	     14.89560990	    -26.98765779	     -0.89983957	    115.77544693	    102.22011036	     16.70857955	    -21.85354360	     -0.25839277	    116.01457931	    102.07737513
      0.02000000	     -6.48601357	     -1.68658617	     -0.89857256	     -0.15035287	      0.96190762	     -0.68876597	      5.49375027	     -6.04084884	      3.10485136	      1.55817399	      0.02719527	      4.00475024	     -1.20068229	     -6.64815047	      5.92850443	     -8.35733974	     -9.13511299	      2.45343881	      0.04282059	      5.02705767	      4.04532684	     -6.64815047	      1.16886162	     -0.86620414	     -0.71463934	     14.94366419	    -26.96087611	     -1.06027203	    115.48197784	    106.43104758	     16.68333629	    -21.86973451	     -0.54785563	    115.55652239	    106.20559695
      0.03000000	     -6.49627508	     -1.69377704	     -0.89876876	     -0.15032950	      0.96190506	     -0.68875975	      5.48937550	     -6.02360433	      3.20927446	      1.52417757	      0.02660192	      3.76206183	     -1.51915009	     -6.82448795	      5.93975629	     -8.36615155	     -9.05176384	      2.46549463	      0.04303100	      4.97872839	      3.98200636	     -6.82448795	      1.17504295	     -0.86853103	     -0.71974746	     14.96399578	    -26.98925910	     -0.99716275	    115.48607361	    105.86779719	     16.68319248	    -21.86859612	     -0.52162290	    115.64479574	    105.80790667
      0.04000000	     -6.43329975	     -1.68395127	     -0.86891275	     -0.15023874	      0.96201839	     -0.68882401	      5.43285030	     -6.05108354	      2.89012593	      1.56169310	      0.02725669	      4.05265214	     -0.87732090	     -6.97215275	      5.83692259	     -8.33058006	     -8.82317899	      2.39075115	      0.04172648	      4.80604177	      3.63309611	     -6.97215275	      1.11006418	     -0.88079593	     -0.74128879	     14.96534647	    -27.01686683	     -0.82570432	    115.72514068	    102.69426207	     16.70079546	    -21.90317277	     -0.31035586	    115.97136799	    102.73608962
      0.05000000	     -6.44318418	     -1.69037839	     -0.88592056	     -0.15019073	      0.96203348	     -0.68878704	      5.42878859	     -6.03690746	      3.06705289	      1.53780011	      0.02683968	      3.86570332	     -1.28144161	     -7.12518806	      5.87526059	     -8.35776502	     -8.99559490	      2.46213628	      0.04297238	      4.91877160	      3.93344046	     -7.12518806	      1.13593474	     -0.87963736	     -0.70846724	     14.96186109	    -27.01740051	     -1.05374713	    115.43619512	    106.54533415	     16.74655195	    -21.86419420	     -0.53389288	    115.56804052	    106.50597656
      0.06000000	     -6.43925340	     -1.68123594	     -0.89017563	     -0.15014047	      0.96205962	     -0.68876009	      5.41413922	     -6.04195013	      3.14816714	      1.52286215	      0.02657896	      3.79321333	     -1.42001817	     -7.20533745	      5.87147207	     -8.35079104	     -8.99671121	      2.47490509	      0.04319524	      4.94107926	      3.93081559	     -7.20533745	      1.14474787	     -0.89044180	     -0.69521305	     14.95743135	    -27.02175498	     -1.03766416	    115.47478652	    106.03945335	     16.77035977	    -21.86372251	     -0.50351369	    115.58050814	    106.15519045
      0.07000000	     -6.43640263	     -1.67848144	     -0.87591426	     -0.15007159	      0.96208424	     -0.68878705	      5.41028531	     -6.05681493	      3.00211476	      1.53680156	      0.02682225	      4.00276954	     -0.97759975	     -7.23606592	      5.86610725	     -8.34226318	     -8.91894512	      2.47646876	      0.04322253	      4.97280205	      3.88991001	     -7.23606592	      1.14716356	     -0.88953145	     -0.71273437	     14.94735652	    -27.01948671	     -0.98994685	    115.62933994	    104.39287338	     16.75969945	    -21.86744310	     -0.43503924	    115.76476592	    104.54883282
      0.08000000	     -6.44237299	     -1.67301690	     -0.89592632	     -0.15005478	      0.96211645	     -0.68878303	      5.42107380	     -6.06052283	      3.10857886	      1.53980129	      0.02687460	      3.87844561	     -1.25480343	     -7.31354750	      5.87701283	     -8.33544149	     -8.95497569	      2.48707528	      0.04340765	      4.90609311	      3.86286769	     -7.31354750	      1.16979770	     -0.89292429	     -0.68541853	     14.96813572	    -27.02432616	     -1.07915576	    115.47392331	    106.28600471	     16.79329377	    -21.85806654	     -0.52225445	    115.53620810	    106.37230363
